<svg width="48" height="48" viewBox="0 0 48 48" fill="none" xmlns="http://www.w3.org/2000/svg">
<g clip-path="url(#clip0_2994_6504)">
<path d="M48 24C48 37.2548 37.2548 48 24 48C10.7452 48 0 37.2548 0 24C0 10.7452 10.7452 0 24 0C37.2548 0 48 10.7452 48 24Z" fill="#EEF0F4"/>
<path fill-rule="evenodd" clip-rule="evenodd" d="M24 46C36.1503 46 46 36.1503 46 24C46 11.8497 36.1503 2 24 2C11.8497 2 2 11.8497 2 24C2 36.1503 11.8497 46 24 46ZM24 48C37.2548 48 48 37.2548 48 24C48 10.7452 37.2548 0 24 0C10.7452 0 0 10.7452 0 24C0 37.2548 10.7452 48 24 48Z" fill="#667080"/>
<path fill-rule="evenodd" clip-rule="evenodd" d="M24 30C17.9925 30 6 33.015 6 39V39.875C10.3977 44.8575 16.8318 48 24 48C31.1682 48 37.6023 44.8575 42 39.8749V39C42 33.015 30.0075 30 24 30ZM40 39.0998V39C40 38.2383 39.6343 37.4231 38.6759 36.5385C37.7038 35.6414 36.2615 34.8142 34.5091 34.1122C31.0009 32.7068 26.7537 32 24 32C21.2463 32 16.9991 32.7068 13.4909 34.1122C11.7385 34.8142 10.2962 35.6414 9.32415 36.5385C8.36568 37.4231 8 38.2383 8 39V39.0998C12.0135 43.3511 17.6963 46 24 46C30.3037 46 35.9865 43.3511 40 39.0998ZM24 12C20.1321 12 17 15.1321 17 19C17 22.8679 20.1321 26 24 26C27.8679 26 31 22.8679 31 19C31 15.1321 27.8679 12 24 12ZM15 19C15 14.0275 19.0275 10 24 10C28.9725 10 33 14.0275 33 19C33 23.9725 28.9725 28 24 28C19.0275 28 15 23.9725 15 19Z" fill="#667080"/>
</g>
<defs>
<clipPath id="clip0_2994_6504">
<rect width="48" height="48" fill="white"/>
</clipPath>
</defs>
</svg>
